<svg width="110" height="19" viewBox="0 0 110 19" fill="none" xmlns="http://www.w3.org/2000/svg">
<path d="M8.39394 1.11971L6.10966 5.79369L0.943671 6.53169C0.0299593 6.67226 -0.321468 7.79683 0.346244 8.46454L4.03623 12.0842L3.15766 17.1799C3.01709 18.0937 4.00109 18.7965 4.80937 18.3748L9.41308 15.9499L13.9816 18.3748C14.7899 18.7965 15.7739 18.0937 15.6333 17.1799L14.7548 12.0842L18.4448 8.46454C19.1125 7.79683 18.761 6.67226 17.8473 6.53169L12.7165 5.79369L10.3971 1.11971C10.0105 0.311422 8.81565 0.276279 8.39394 1.11971Z" fill="#0095F4"/>
<path d="M30.935 1.11971L28.6507 5.79369L23.4847 6.53169C22.571 6.67226 22.2195 7.79683 22.8873 8.46454L26.5772 12.0842L25.6987 17.1799C25.5581 18.0937 26.5421 18.7965 27.3504 18.3748L31.9541 15.9499L36.5226 18.3748C37.3309 18.7965 38.3149 18.0937 38.1744 17.1799L37.2958 12.0842L40.9858 8.46454C41.6535 7.79683 41.3021 6.67226 40.3884 6.53169L35.2575 5.79369L32.9381 1.11971C32.5515 0.311422 31.3567 0.276279 30.935 1.11971Z" fill="#0095F4"/>
<path d="M53.476 1.11971L51.1917 5.79369L46.0257 6.53169C45.112 6.67226 44.7606 7.79683 45.4283 8.46454L49.1183 12.0842L48.2397 17.1799C48.0991 18.0937 49.0831 18.7965 49.8914 18.3748L54.4951 15.9499L59.0637 18.3748C59.8719 18.7965 60.8559 18.0937 60.7154 17.1799L59.8368 12.0842L63.5268 8.46454C64.1945 7.79683 63.8431 6.67226 62.9294 6.53169L57.7985 5.79369L55.4791 1.11971C55.0925 0.311422 53.8977 0.276279 53.476 1.11971Z" fill="#0095F4"/>
<path d="M76.017 1.11971L73.7327 5.79369L68.5667 6.53169C67.653 6.67226 67.3016 7.79683 67.9693 8.46454L71.6593 12.0842L70.7807 17.1799C70.6401 18.0937 71.6241 18.7965 72.4324 18.3748L77.0361 15.9499L81.6047 18.3748C82.413 18.7965 83.397 18.0937 83.2564 17.1799L82.3778 12.0842L86.0678 8.46454C86.7355 7.79683 86.3841 6.67226 85.4704 6.53169L80.3395 5.79369L78.0201 1.11971C77.6336 0.311422 76.4387 0.276279 76.017 1.11971Z" fill="#0095F4"/>
<path d="M98.558 1.11971L96.2737 5.79369L91.1077 6.53169C90.194 6.67226 89.8426 7.79683 90.5103 8.46454L94.2003 12.0842L93.3217 17.1799C93.1812 18.0937 94.1652 18.7965 94.9734 18.3748L99.5771 15.9499L104.146 18.3748C104.954 18.7965 105.938 18.0937 105.797 17.1799L104.919 12.0842L108.609 8.46454C109.277 7.79683 108.925 6.67226 108.011 6.53169L102.881 5.79369L100.561 1.11971C100.175 0.311422 98.9797 0.276279 98.558 1.11971Z" fill="#0095F4"/>
</svg>
